<svg width="100" height="100" viewBox="0 0 100 100" fill="none" xmlns="http://www.w3.org/2000/svg">
<path d="M30.3716 20.4485C43.4326 19.3131 56.5675 19.3131 69.6285 20.4484L75.9211 20.9955C80.1102 21.3596 83.6979 23.8582 85.5569 27.4323C85.7947 27.8895 85.6165 28.4431 85.1783 28.7144L59.0701 44.8766C53.4706 48.3429 46.4102 48.4156 40.7405 45.0654L14.4579 29.5348C14.0333 29.2838 13.8384 28.7673 14.0297 28.3128C15.7304 24.2729 19.5538 21.3888 24.079 20.9955L30.3716 20.4485Z" fill="white"/>
<path d="M14.0083 36.5287C13.3585 36.1447 12.5293 36.558 12.4536 37.309C11.3963 47.7908 11.6522 58.3718 13.2212 68.8056C14.0483 74.3061 18.5375 78.5229 24.079 79.0046L30.3716 79.5516C43.4326 80.687 56.5675 80.687 69.6285 79.5516L75.9211 79.0046C81.4626 78.5229 85.9518 74.3061 86.7789 68.8056C88.3936 58.0678 88.6176 47.174 87.4508 36.3929C87.3689 35.6366 86.5257 35.2309 85.8788 35.6314L62.3598 50.1907C54.7841 54.8805 45.2317 54.9789 37.5609 50.4462L14.0083 36.5287Z" fill="white"/>
</svg>
