<svg width="100" height="100" viewBox="0 0 100 100" fill="none" xmlns="http://www.w3.org/2000/svg">
<path fill-rule="evenodd" clip-rule="evenodd" d="M11.6821 34.8054C10.5149 45.6508 10.5669 58.1591 12.1912 68.9604C13.0899 74.937 17.9677 79.5189 23.9888 80.0423L30.2815 80.5893C43.4025 81.7299 56.5977 81.7299 69.7188 80.5893L76.0114 80.0423C82.0325 79.5189 86.9103 74.937 87.809 68.9604C89.4333 58.159 89.4854 45.6515 88.3182 34.806C88.1673 33.5487 87.9975 32.2931 87.809 31.0395C86.9103 25.0629 82.0325 20.481 76.0114 19.9576L69.7187 19.4106C56.5977 18.27 43.4025 18.27 30.2815 19.4106L23.9888 19.9576C17.9677 20.481 13.0899 25.0629 12.1912 31.0395C12.0027 32.2928 11.833 33.5483 11.6821 34.8054ZM30.8227 25.6371C43.5836 24.5279 56.4166 24.5279 69.1775 25.6371L75.4701 26.1841C78.6132 26.4574 81.1594 28.8491 81.6285 31.9689C81.6773 32.2929 81.7247 32.617 81.7707 32.9413L58.5999 45.814C53.2516 48.7853 46.7483 48.7853 41.4 45.814L18.2295 32.9415C18.2755 32.6171 18.323 32.293 18.3717 31.9689C18.8408 28.8491 21.387 26.4574 24.5301 26.1841L30.8227 25.6371ZM82.5355 39.6662C83.3437 49.1151 83.0414 58.6354 81.6285 68.031C81.1594 71.1508 78.6132 73.5426 75.4701 73.8158L69.1775 74.3628C56.4166 75.4721 43.5836 75.4721 30.8227 74.3628L24.5301 73.8158C21.387 73.5426 18.8408 71.1508 18.3717 68.031C16.9588 58.6354 16.6565 49.1152 17.4647 39.6663L38.3648 51.2775C45.6007 55.2975 54.3992 55.2975 61.6352 51.2775L82.5355 39.6662Z" fill="white"/>
</svg>
