<svg width="101" height="100" viewBox="0 0 101 100" fill="none" xmlns="http://www.w3.org/2000/svg">
<path fill-rule="evenodd" clip-rule="evenodd" d="M24.8351 41.0681C32.2822 57.2844 45.5342 70.1767 62.0082 77.1625L62.0602 77.1846L65.2428 78.6031C69.2954 80.4087 74.0589 79.1263 76.6572 75.5302L81.9671 68.1812C82.2914 67.7323 82.2078 67.1081 81.7768 66.7604L72.5071 59.2821C72.0463 58.9104 71.3687 58.9969 71.0161 59.4726L67.4083 64.3409C66.5322 65.5232 64.9499 65.934 63.6092 65.3273C51.2909 59.7526 41.3921 49.8538 35.8174 37.5354C35.2106 36.1948 35.6215 34.6125 36.8038 33.7363L41.672 30.1286C42.1477 29.776 42.2343 29.0984 41.8625 28.6376L34.3832 19.3666C34.0355 18.9357 33.4116 18.852 32.9627 19.1761L25.574 24.51C21.9541 27.1233 20.6792 31.9269 22.527 35.9912L24.8326 41.0627C24.8334 41.0645 24.8342 41.0663 24.8351 41.0681ZM59.542 82.9054C41.6419 75.3071 27.2445 61.2946 19.1527 43.6706L19.1478 43.66L16.8374 38.5779C13.7578 31.8039 15.8825 23.798 21.9157 19.4425L29.3044 14.1086C32.4466 11.8402 36.8142 12.426 39.2476 15.4423L46.7269 24.7133C49.3292 27.939 48.7231 32.6823 45.3933 35.15L42.6037 37.2173C47.3158 46.3606 54.7841 53.8288 63.9274 58.541L65.9947 55.7514C68.4624 52.4215 73.2057 51.8154 76.4314 54.4177L85.7011 61.896C88.7183 64.3301 89.3034 68.6994 87.0331 71.8416L81.7232 79.1905C77.3926 85.1841 69.4536 87.3215 62.6992 84.3121L59.542 82.9054Z" fill="white"/>
</svg>
