<svg width="100" height="100" viewBox="0 0 100 100" fill="none" xmlns="http://www.w3.org/2000/svg">
<path d="M20.8338 41.0855C28.8188 58.4767 43.0272 72.3038 60.692 79.7997L63.5236 81.0613C70.002 83.9477 77.6176 81.7548 81.569 75.8652L85.2694 70.3498C86.4725 68.5566 86.1062 66.1413 84.4255 64.7855L71.8761 54.6613C70.0329 53.1743 67.3224 53.5206 65.9123 55.4234L62.0301 60.662C52.0684 55.7481 43.9807 47.6603 39.0668 37.6986L44.3053 33.8165C46.2081 32.4064 46.5544 29.6959 45.0674 27.8526L34.9429 15.3029C33.5873 13.6225 31.1727 13.256 29.3795 14.4584L23.826 18.1821C17.8996 22.1559 15.7188 29.8344 18.6719 36.3301L20.8306 41.0784L20.8338 41.0855Z" fill="white"/>
</svg>
