<svg width="100" height="100" viewBox="0 0 100 100" fill="none" xmlns="http://www.w3.org/2000/svg">
<path d="M54.8361 18.3628C51.8609 16.5713 48.1391 16.5713 45.1639 18.3628L43.0126 19.6582C37.7929 22.8013 31.933 24.73 25.8668 25.3015L24.5115 25.4292C21.8361 25.6812 19.7917 27.9273 19.7917 30.6145V37.4641C19.7917 49.0417 24.492 60.1232 32.816 68.1701L46.38 81.2827C48.3988 83.2343 51.6012 83.2343 53.62 81.2827L67.184 68.1701C75.508 60.1232 80.2083 49.0417 80.2083 37.4641V30.6145C80.2083 27.9273 78.1639 25.6812 75.4885 25.4292L74.1332 25.3015C68.067 24.73 62.2071 22.8013 56.9874 19.6582L54.8361 18.3628Z" fill="white"/>
</svg>
