<svg width="100" height="100" viewBox="0 0 100 100" fill="none" xmlns="http://www.w3.org/2000/svg">
<path fill-rule="evenodd" clip-rule="evenodd" d="M52.6867 21.9323C51.0338 20.937 48.9661 20.937 47.3133 21.9323L45.162 23.2276C39.4069 26.6931 32.9459 28.8196 26.2576 29.4497L24.9023 29.5774C24.3672 29.6278 23.9583 30.0771 23.9583 30.6145V37.464C23.9583 47.9121 28.2001 57.9125 35.712 65.1744L49.276 78.2869C49.6797 78.6772 50.3202 78.6772 50.724 78.2869L64.288 65.1744C71.7999 57.9125 76.0417 47.9121 76.0417 37.464V30.6145C76.0417 30.0771 75.6328 29.6278 75.0977 29.5774L73.7424 29.4497C67.054 28.8196 60.5931 26.6931 54.838 23.2276L52.6867 21.9323ZM44.0892 16.578C47.7255 14.3884 52.2744 14.3884 55.9108 16.578L58.062 17.8734C63.0141 20.8553 68.5735 22.6851 74.3286 23.2273L75.6839 23.355C79.4295 23.7079 82.2917 26.8524 82.2917 30.6145V37.464C82.2917 49.6064 77.362 61.2285 68.632 69.6679L55.068 82.7805C52.2417 85.5127 47.7583 85.5127 44.932 82.7805L31.368 69.6679C22.638 61.2285 17.7083 49.6064 17.7083 37.464V30.6145C17.7083 26.8524 20.5705 23.7079 24.316 23.355L25.6714 23.2273C31.4264 22.6851 36.9859 20.8553 41.9379 17.8734L44.0892 16.578Z" fill="white"/>
</svg>
